<svg width="170px" height="20px" viewBox="0 0 170 20" version="1.1" xmlns="http://www.w3.org/2000/svg" xmlns:xlink="http://www.w3.org/1999/xlink">
  <path d="M15.3436275,14.4657534 L17.5744385,16.8767123 C16.404623,18.1369863 14.1738119,20 10.0114449,20 C4.40721214,20 0,15.6986301 0,9.94520548 C0,3.89041096 4.89690238,0 10.1746749,0 C14.0921969,0 16.3502129,1.78082192 17.5200285,2.87671233 L15.2892174,5.56164384 C14.5002721,4.76712329 12.7319462,3.31506849 10.229085,3.31506849 C6.63802323,3.31506849 3.94472692,6.24657534 3.94472692,9.91780822 C3.94472692,13.4794521 6.33876808,16.630137 10.283495,16.630137 C12.4871011,16.630137 14.473067,15.3972603 15.3436275,14.4657534 Z M27.1627986,16.4931507 L35.6779677,16.4931507 L35.6779677,19.6164384 L23.4901218,19.6164384 L23.4901218,0.383561644 L35.4059176,0.383561644 L35.4059176,3.50684932 L27.1627986,3.50684932 L27.1627986,8.30136986 L33.9640519,8.30136986 L33.9640519,11.4246575 L27.1627986,11.4246575 L27.1627986,16.4931507 Z M42.0833412,19.6164384 L42.0833412,0.493150685 C54.8152873,-1.53424658 58.0254789,5.26027397 58.0254789,10 C58.0254789,14.6027397 54.7336723,21.3150685 42.0833412,19.6164384 Z M45.7832229,3.61643836 L45.7832229,16.3287671 C49.5375148,16.6849315 54.107957,15.0410959 54.107957,9.97260274 C54.107957,5.7260274 50.9249704,3.04109589 45.7832229,3.61643836 Z M65.2742078,19.6164384 L61.1934558,19.6164384 L70.0350851,0.191780822 L71.3137207,0.191780822 L80.10094,19.6164384 L76.047393,19.6164384 L74.6055273,16.4931507 L66.7160735,16.4931507 L65.2742078,19.6164384 Z M70.6608004,7.23287671 L68.0219141,13.4246575 L73.2724817,13.4246575 L70.6608004,7.23287671 Z M98.4765193,6.52054795 C98.4765193,9.04109589 96.8986285,11.0410959 95.1030976,11.9452055 L100,19.6164384 L95.5383778,19.6164384 L91.5120359,12.9863014 C90.6958855,13.0684932 89.8797351,13.0958904 88.9547646,13.0136986 L88.9547646,19.6164384 L85.2820878,19.6164384 L85.2820878,0.547945205 C94.3141522,-1.01369863 98.4765193,1.78082192 98.4765193,6.52054795 Z M88.9547646,3.61643836 L88.9547646,9.80821918 C92.9539016,10.2191781 94.6950224,8.71232877 94.6950224,6.46575342 C94.6950224,4.4109589 92.8450815,3.01369863 88.9547646,3.61643836 Z" id="path-1" fill="#111111"></path>
  <path d="M112.7,19.32 L112.7,5.34 C121.94,3.94 124.12,9.04 124.12,12.32 C124.12,15.48 121.8,20.58 112.7,19.32 Z M114.82,7.12 L114.82,17.5 C118.36,17.88 121.86,16.2 121.86,12.3 C121.86,9.04 119.4,6.56 114.82,7.12 Z M126.94,12.32 C126.94,8.24 130.04,5 134.3,5 C138.56,5 141.68,8.24 141.68,12.32 C141.68,16.38 138.56,19.6 134.3,19.6 C130.04,19.6 126.94,16.38 126.94,12.32 Z M129.2,12.32 C129.2,15.56 131.54,17.72 134.3,17.72 C137.04,17.72 139.42,15.56 139.42,12.32 C139.42,9.08 137.04,6.86 134.3,6.86 C131.54,6.86 129.2,9.08 129.2,12.32 Z M156.08,16.06 L157.36,17.44 C156.4,18.38 154.84,19.6 151.82,19.6 C147.68,19.6 144.52,16.42 144.52,12.28 C144.52,7.88 148.02,5 151.92,5 C154.7,5 156.32,6.22 157.26,7.06 L156,8.56 C155.2,7.82 153.78,6.86 151.96,6.86 C149.06,6.86 146.8,9.24 146.8,12.28 C146.8,15.22 148.9,17.72 151.98,17.72 C153.64,17.72 155.24,16.88 156.08,16.06 Z M169.04,6.08 L168.36,7.84 C167.52,7.38 166.22,6.88 165.16,6.88 C163.56,6.88 162.54,7.7 162.54,8.8 C162.54,10.02 163.82,10.7 165.48,11.32 C168.52,12.5 169.62,13.92 169.58,15.76 C169.52,18.22 167.32,19.62 164.72,19.6 C162.68,19.58 161.08,18.82 160.2,18.1 L161.04,16.48 C161.82,17.06 163.14,17.76 164.6,17.76 C166.14,17.76 167.48,16.98 167.48,15.8 C167.48,14.42 166.02,13.84 164.1,13 C161.82,12 160.42,10.86 160.42,8.8 C160.42,6.96 161.92,5 164.98,5 C166.46,5 168.22,5.64 169.04,6.08 Z" id="DOCS" fill="#576ADA"></path>
</svg>