<svg width="163px" height="20px" viewBox="0 0 163 20" version="1.1" xmlns="http://www.w3.org/2000/svg" xmlns:xlink="http://www.w3.org/1999/xlink">
  <path d="M15.3436275,14.4657534 L17.5744385,16.8767123 C16.404623,18.1369863 14.1738119,20 10.0114449,20 C4.40721214,20 0,15.6986301 0,9.94520548 C0,3.89041096 4.89690238,0 10.1746749,0 C14.0921969,0 16.3502129,1.78082192 17.5200285,2.87671233 L15.2892174,5.56164384 C14.5002721,4.76712329 12.7319462,3.31506849 10.229085,3.31506849 C6.63802323,3.31506849 3.94472692,6.24657534 3.94472692,9.91780822 C3.94472692,13.4794521 6.33876808,16.630137 10.283495,16.630137 C12.4871011,16.630137 14.473067,15.3972603 15.3436275,14.4657534 Z M27.1627986,16.4931507 L35.6779677,16.4931507 L35.6779677,19.6164384 L23.4901218,19.6164384 L23.4901218,0.383561644 L35.4059176,0.383561644 L35.4059176,3.50684932 L27.1627986,3.50684932 L27.1627986,8.30136986 L33.9640519,8.30136986 L33.9640519,11.4246575 L27.1627986,11.4246575 L27.1627986,16.4931507 Z M42.0833412,19.6164384 L42.0833412,0.493150685 C54.8152873,-1.53424658 58.0254789,5.26027397 58.0254789,10 C58.0254789,14.6027397 54.7336723,21.3150685 42.0833412,19.6164384 Z M45.7832229,3.61643836 L45.7832229,16.3287671 C49.5375148,16.6849315 54.107957,15.0410959 54.107957,9.97260274 C54.107957,5.7260274 50.9249704,3.04109589 45.7832229,3.61643836 Z M65.2742078,19.6164384 L61.1934558,19.6164384 L70.0350851,0.191780822 L71.3137207,0.191780822 L80.10094,19.6164384 L76.047393,19.6164384 L74.6055273,16.4931507 L66.7160735,16.4931507 L65.2742078,19.6164384 Z M70.6608004,7.23287671 L68.0219141,13.4246575 L73.2724817,13.4246575 L70.6608004,7.23287671 Z M98.4765193,6.52054795 C98.4765193,9.04109589 96.8986285,11.0410959 95.1030976,11.9452055 L100,19.6164384 L95.5383778,19.6164384 L91.5120359,12.9863014 C90.6958855,13.0684932 89.8797351,13.0958904 88.9547646,13.0136986 L88.9547646,19.6164384 L85.2820878,19.6164384 L85.2820878,0.547945205 C94.3141522,-1.01369863 98.4765193,1.78082192 98.4765193,6.52054795 Z M88.9547646,3.61643836 L88.9547646,9.80821918 C92.9539016,10.2191781 94.6950224,8.71232877 94.6950224,6.46575342 C94.6950224,4.4109589 92.8450815,3.01369863 88.9547646,3.61643836 Z" id="path-1" fill="#111111" fill-rule="nonzero"></path>
  <path d="M111.65,19.3 L111.65,5.38 C115.57,4.78 120.53,4.84 120.53,8.92 C120.53,10.38 119.73,11.42 118.97,11.8 C120.25,12.08 121.63,13.26 121.63,15.3 C121.63,18.5 118.95,20.08 111.65,19.3 Z M113.77,7.02 L113.77,11.2 L116.83,11.2 C117.71,11.08 118.45,10.22 118.45,9.16 C118.45,6.84 115.81,6.74 113.77,7.02 Z M113.77,12.84 L113.77,17.5 C116.91,17.82 119.47,17.44 119.47,15.14 C119.47,13.62 118.27,12.94 117.13,12.84 L113.77,12.84 Z M132.06,17.56 L132.06,19.32 L123.78,19.32 L123.78,5.28 L125.88,5.28 L125.88,17.56 L132.06,17.56 Z M132.49,12.32 C132.49,8.24 135.59,5 139.85,5 C144.11,5 147.23,8.24 147.23,12.32 C147.23,16.38 144.11,19.6 139.85,19.6 C135.59,19.6 132.49,16.38 132.49,12.32 Z M134.75,12.32 C134.75,15.56 137.09,17.72 139.85,17.72 C142.59,17.72 144.97,15.56 144.97,12.32 C144.97,9.08 142.59,6.86 139.85,6.86 C137.09,6.86 134.75,9.08 134.75,12.32 Z M157.48,13.9 L157.48,12.16 L162.2,12.16 L162.2,17.46 C160.38,19.22 158.4,19.6 156.4,19.6 C151.94,19.6 148.82,16.32 148.82,12.28 C148.82,8.02 152.26,5 156.18,5 C158.92,5 160.5,6.08 161.56,7.06 C161.14,7.56 160.68,8.06 160.26,8.56 C159.42,7.78 158.16,6.86 156.24,6.86 C153.38,6.86 151.12,9.22 151.12,12.24 C151.12,15.44 153.32,17.74 156.48,17.74 C157.8,17.74 159.42,17.26 160.14,16.6 L160.14,13.9 L157.48,13.9 Z" id="BLOG" fill="#576ADA"></path>
</svg>