<svg width="206px" height="20px" viewBox="0 0 206 20" version="1.1" xmlns="http://www.w3.org/2000/svg" xmlns:xlink="http://www.w3.org/1999/xlink">
  <path d="M15.3436275,14.4657534 L17.5744385,16.8767123 C16.404623,18.1369863 14.1738119,20 10.0114449,20 C4.40721214,20 0,15.6986301 0,9.94520548 C0,3.89041096 4.89690238,0 10.1746749,0 C14.0921969,0 16.3502129,1.78082192 17.5200285,2.87671233 L15.2892174,5.56164384 C14.5002721,4.76712329 12.7319462,3.31506849 10.229085,3.31506849 C6.63802323,3.31506849 3.94472692,6.24657534 3.94472692,9.91780822 C3.94472692,13.4794521 6.33876808,16.630137 10.283495,16.630137 C12.4871011,16.630137 14.473067,15.3972603 15.3436275,14.4657534 Z M27.1627986,16.4931507 L35.6779677,16.4931507 L35.6779677,19.6164384 L23.4901218,19.6164384 L23.4901218,0.383561644 L35.4059176,0.383561644 L35.4059176,3.50684932 L27.1627986,3.50684932 L27.1627986,8.30136986 L33.9640519,8.30136986 L33.9640519,11.4246575 L27.1627986,11.4246575 L27.1627986,16.4931507 Z M42.0833412,19.6164384 L42.0833412,0.493150685 C54.8152873,-1.53424658 58.0254789,5.26027397 58.0254789,10 C58.0254789,14.6027397 54.7336723,21.3150685 42.0833412,19.6164384 Z M45.7832229,3.61643836 L45.7832229,16.3287671 C49.5375148,16.6849315 54.107957,15.0410959 54.107957,9.97260274 C54.107957,5.7260274 50.9249704,3.04109589 45.7832229,3.61643836 Z M65.2742078,19.6164384 L61.1934558,19.6164384 L70.0350851,0.191780822 L71.3137207,0.191780822 L80.10094,19.6164384 L76.047393,19.6164384 L74.6055273,16.4931507 L66.7160735,16.4931507 L65.2742078,19.6164384 Z M70.6608004,7.23287671 L68.0219141,13.4246575 L73.2724817,13.4246575 L70.6608004,7.23287671 Z M98.4765193,6.52054795 C98.4765193,9.04109589 96.8986285,11.0410959 95.1030976,11.9452055 L100,19.6164384 L95.5383778,19.6164384 L91.5120359,12.9863014 C90.6958855,13.0684932 89.8797351,13.0958904 88.9547646,13.0136986 L88.9547646,19.6164384 L85.2820878,19.6164384 L85.2820878,0.547945205 C94.3141522,-1.01369863 98.4765193,1.78082192 98.4765193,6.52054795 Z M88.9547646,3.61643836 L88.9547646,9.80821918 C92.9539016,10.2191781 94.6950224,8.71232877 94.6950224,6.46575342 C94.6950224,4.4109589 92.8450815,3.01369863 88.9547646,3.61643836 Z" id="path-1" fill="#111111"></path>
  <path d="M120.94,6.08 L120.26,7.84 C119.42,7.38 118.12,6.88 117.06,6.88 C115.46,6.88 114.44,7.7 114.44,8.8 C114.44,10.02 115.72,10.7 117.38,11.32 C120.42,12.5 121.52,13.92 121.48,15.76 C121.42,18.22 119.22,19.62 116.62,19.6 C114.58,19.58 112.98,18.82 112.1,18.1 L112.94,16.48 C113.72,17.06 115.04,17.76 116.5,17.76 C118.04,17.76 119.38,16.98 119.38,15.8 C119.38,14.42 117.92,13.84 116,13 C113.72,12 112.32,10.86 112.32,8.8 C112.32,6.96 113.82,5 116.88,5 C118.36,5 120.12,5.64 120.94,6.08 Z M125.14,14.18 L125.14,5.28 L127.26,5.28 L127.26,14.14 C127.26,16.14 128.7,17.76 130.62,17.76 C132.54,17.76 133.98,16.14 133.98,14.14 L133.98,5.28 L136.08,5.28 L136.08,14.18 C136.08,16.94 134.22,19.6 130.6,19.6 C127,19.6 125.14,16.94 125.14,14.18 Z M149.5,9.84 C149.5,13.04 147,14.96 142.44,14.68 L142.44,19.32 L140.34,19.32 L140.34,5.38 C146.66,4.26 149.5,6.46 149.5,9.84 Z M142.44,7.1 L142.44,12.82 C145.84,13.06 147.34,11.84 147.34,9.82 C147.34,7.98 146,6.64 142.44,7.1 Z M162.16,9.84 C162.16,13.04 159.66,14.96 155.1,14.68 L155.1,19.32 L153,19.32 L153,5.38 C159.32,4.26 162.16,6.46 162.16,9.84 Z M155.1,7.1 L155.1,12.82 C158.5,13.06 160,11.84 160,9.82 C160,7.98 158.66,6.64 155.1,7.1 Z M165,12.32 C165,8.24 168.1,5 172.36,5 C176.62,5 179.74,8.24 179.74,12.32 C179.74,16.38 176.62,19.6 172.36,19.6 C168.1,19.6 165,16.38 165,12.32 Z M167.26,12.32 C167.26,15.56 169.6,17.72 172.36,17.72 C175.1,17.72 177.48,15.56 177.48,12.32 C177.48,9.08 175.1,6.86 172.36,6.86 C169.6,6.86 167.26,9.08 167.26,12.32 Z M192.46,9.58 C192.46,11.46 191.28,12.96 189.72,13.6 L193.62,19.32 L191.02,19.32 L187.64,14.2 C186.96,14.26 186.2,14.3 185.4,14.22 L185.4,19.32 L183.3,19.32 L183.3,5.38 C189.58,4.32 192.46,6.26 192.46,9.58 Z M185.4,7.1 L185.4,12.36 C188.68,12.76 190.3,11.48 190.3,9.56 C190.3,7.76 188.72,6.58 185.4,7.1 Z M205.96,5.28 L205.96,7.06 L201.8,7.06 L201.8,19.32 L199.7,19.32 L199.7,7.06 L195.56,7.06 L195.56,5.28 L205.96,5.28 Z" id="SUPPORT" fill="#576ADA"></path>
</svg>